<svg id="_x33_0" enable-background="new 0 0 64 64" height="512" viewBox="0 0 64 64" width="512" xmlns="http://www.w3.org/2000/svg"><g><path d="m56 42.414v-16.414h4l-6-8-6 8h4v12.352c1.458 1.235 2.798 2.588 4 4.062z"/><path d="m9.55 40.657 2.45-2.58v-12.077h4l-6-8-6 8h4v16.427c.495-.606 1.007-1.199 1.55-1.77z"/><path d="m39 3h-4v4h-6v-4h-4v14h14.001z"/><path d="m31 3h2v2h-2z"/><path d="m61 3h-4v4h-6v-4h-4v14h14.001z"/><path d="m53 3h2v2h-2z"/><path d="m9 3h2v2h-2z"/><path d="m17 3h-4v4h-6v-4h-4v14h14.001z"/><path d="m53.338 49.716c-1.005.125-1.862.787-2.238 1.728l-.33.824c-.656 1.642-2.156 2.782-3.913 2.977l-3.381.376c-1.412.155-2.476 1.345-2.476 2.765 0 .3.048.596.143.879l.578 1.735h19.262c-.145-4.237-1.214-8.258-3.009-11.864z"/><path d="m43.255 53.632 3.382-.376c1.022-.112 1.895-.776 2.276-1.731l.33-.824c.646-1.616 2.121-2.754 3.848-2.969l3.855-.482c-2.017-3.398-4.708-6.358-7.894-8.686l-.691 1.728c-.371.925-1.064 1.68-1.955 2.124l-3.7 1.85c-.538.27-.931.76-1.077 1.344l-1.16 4.638c-.402 1.609-1.723 2.801-3.365 3.035l-3.091.441c-.777.111-1.414.643-1.663 1.388-.376 1.128-1.43 1.888-2.62 1.888-.738 0-1.432-.288-1.954-.81l-1.138-1.139c-.354-.353-.605-.797-.727-1.283l-.574-2.297c-.134-.533-.467-.983-.939-1.267l-2.664-1.599c-1.053-.631-1.757-1.69-1.93-2.906l-.588-4.117c-.088-.617-.445-1.154-.979-1.475l-2.964-1.779c-.787.559-1.546 1.154-2.273 1.786v9.202c0 1.12.759 2.092 1.845 2.362l3.398.851c1.593.397 2.83 1.635 3.228 3.228.218.874.897 1.554 1.772 1.772l.172.043c1.477.368 2.648 1.452 3.13 2.899l.176.529h12.892l-.367-1.102c-.163-.487-.246-.997-.246-1.512 0-2.441 1.829-4.485 4.255-4.754z"/><path d="m22.928 59.514-.173-.044c-1.591-.397-2.828-1.635-3.226-3.228-.218-.874-.897-1.554-1.772-1.772l-3.397-.85c-1.978-.493-3.36-2.263-3.36-4.303v-7.283c-4.746 4.996-7.732 11.662-7.983 18.966h21.58c-.285-.739-.895-1.294-1.669-1.486z"/><path d="m21.196 41.3.588 4.117c.088.617.445 1.154.979 1.475l2.665 1.599c.93.559 1.586 1.444 1.85 2.496l.574 2.298c.033.134.103.256.2.353l1.139 1.14c.379.379 1.094.207 1.262-.298.489-1.469 1.745-2.517 3.277-2.736l3.092-.441c.833-.118 1.502-.723 1.707-1.539l1.16-4.639c.288-1.15 1.062-2.115 2.122-2.646l3.702-1.851c.452-.226.804-.608.992-1.078l.852-2.131c-3.918-2.461-8.464-4.016-13.357-4.349v-7.07h4l-6-8-6 8h4v7.069c-4.69.32-9.063 1.76-12.867 4.045l2.133 1.28c1.052.63 1.756 1.69 1.93 2.906z"/></g></svg>